<?xml version="1.0" encoding="UTF-8"?>
<svg xmlns="http://www.w3.org/2000/svg" viewBox="0 0 100 100" width="100" height="100" role="img" aria-label="OconEco mark"><circle cx="58.314" cy="28.341" r="26.300" fill="none" stroke="#96C13F" stroke-width="1.4" stroke-opacity="0.55"/><circle cx="64.600" cy="68.030" r="26.300" fill="none" stroke="#96C13F" stroke-width="1.4" stroke-opacity="0.55"/><circle cx="27.086" cy="53.629" r="26.300" fill="none" stroke="#96C13F" stroke-width="1.4" stroke-opacity="0.55"/><g><path d="M 32.0198 27.7963 A 26.3000 26.3000 0 0 1 53.3800 54.1739 A 26.3000 26.3000 0 0 1 32.0198 27.7963 Z" fill="#85C040"/><path d="M 78.2191 45.5305 A 26.3000 26.3000 0 0 1 44.6953 50.8402 A 26.3000 26.3000 0 0 1 78.2191 45.5305 Z"  fill="#008AB8"/><path d="M 39.7611 76.6732 A 26.3000 26.3000 0 0 1 51.9247 44.9859 A 26.3000 26.3000 0 0 1 39.7611 76.6732 Z"  fill="#87CFCB"/><path d="M 51.9247 44.9859 A 26.3000 26.3000 0 0 1 53.3800 54.1739 A 26.3000 26.3000 0 0 1 44.6953 50.8402 A 26.3000 26.3000 0 0 1 51.9247 44.9859 Z"  fill="#FAA719"/></g></svg>