<?xml version="1.0" encoding="UTF-8"?>
<svg xmlns="http://www.w3.org/2000/svg" viewBox="0 0 560 170" width="560" height="170" role="img" aria-label="('Ocon', '#1A7A9B')('Eco', '#4E944F') — DISCOVERING BUSINESS WEALTH">
<defs><style>@import url("https://fonts.googleapis.com/css2?family=Nunito:wght@600;700;800&amp;display=swap");
.wm{font-family:Nunito,sans-serif;font-weight:700;font-size:74px;}
.tg{font-family:Nunito,sans-serif;font-weight:500;font-size:14px;letter-spacing:2.8px;}</style></defs>
<g transform="translate(8,18) scale(1.34)"><defs><linearGradient id="ring04varcolor2warmnunito0" gradientUnits="userSpaceOnUse" x1="48.89" y1="52.89" x2="67.74" y2="3.79"><stop offset="0" stop-color="#96C13F" stop-opacity="0.85"/><stop offset="1" stop-color="#96C13F" stop-opacity="0.05"/></linearGradient><linearGradient id="ring04varcolor2warmnunito1" gradientUnits="userSpaceOnUse" x1="48.05" y1="47.59" x2="81.15" y2="88.47"><stop offset="0" stop-color="#96C13F" stop-opacity="0.85"/><stop offset="1" stop-color="#96C13F" stop-opacity="0.05"/></linearGradient><linearGradient id="ring04varcolor2warmnunito2" gradientUnits="userSpaceOnUse" x1="53.06" y1="49.52" x2="1.11" y2="57.74"><stop offset="0" stop-color="#96C13F" stop-opacity="0.85"/><stop offset="1" stop-color="#96C13F" stop-opacity="0.05"/></linearGradient></defs><circle cx="58.314" cy="28.341" r="26.300" fill="none" stroke="url(#ring04varcolor2warmnunito0)" stroke-width="1.4"/><circle cx="64.600" cy="68.030" r="26.300" fill="none" stroke="url(#ring04varcolor2warmnunito1)" stroke-width="1.4"/><circle cx="27.086" cy="53.629" r="26.300" fill="none" stroke="url(#ring04varcolor2warmnunito2)" stroke-width="1.4"/><g><path d="M 32.0198 27.7963 A 26.3000 26.3000 0 0 1 53.3800 54.1739 A 26.3000 26.3000 0 0 1 32.0198 27.7963 Z" fill="#85C040"/><path d="M 78.2191 45.5305 A 26.3000 26.3000 0 0 1 44.6953 50.8402 A 26.3000 26.3000 0 0 1 78.2191 45.5305 Z"  fill="#008AB8"/><path d="M 39.7611 76.6732 A 26.3000 26.3000 0 0 1 51.9247 44.9859 A 26.3000 26.3000 0 0 1 39.7611 76.6732 Z"  fill="#87CFCB"/><path d="M 51.9247 44.9859 A 26.3000 26.3000 0 0 1 53.3800 54.1739 A 26.3000 26.3000 0 0 1 44.6953 50.8402 A 26.3000 26.3000 0 0 1 51.9247 44.9859 Z"  fill="#FAA719"/></g></g>
<text x="170" y="92" class="wm"><tspan fill="#1A7A9B">Ocon</tspan><tspan fill="#4E944F">Eco</tspan></text>
<text x="172" y="120" class="tg" fill="#1A7A9B">DISCOVERING BUSINESS WEALTH</text>
</svg>