<?xml version="1.0" encoding="UTF-8"?>
<svg xmlns="http://www.w3.org/2000/svg" viewBox="0 0 100 100" width="100" height="100" role="img" aria-label="OconEco mark"><g transform="translate(50 50) scale(0.94) translate(-50 -50)"><path d="M 25.2569 35.7146 A 26.3000 26.3000 0 0 1 54.6513 52.6854 A 26.3000 26.3000 0 0 1 25.2569 35.7146 Z" fill="#85C040"/><path d="M 74.7431 35.7146 A 26.3000 26.3000 0 0 1 45.3487 52.6854 A 26.3000 26.3000 0 0 1 74.7431 35.7146 Z"  fill="#008AB8"/><path d="M 50.0000 78.5709 A 26.3000 26.3000 0 0 1 50.0000 44.6291 A 26.3000 26.3000 0 0 1 50.0000 78.5709 Z"  fill="#87CFCB"/><path d="M 50.0000 44.6291 A 26.3000 26.3000 0 0 1 54.6513 52.6854 A 26.3000 26.3000 0 0 1 45.3487 52.6854 A 26.3000 26.3000 0 0 1 50.0000 44.6291 Z"  fill="#FAA719"/></g></svg>