<?xml version="1.0" encoding="UTF-8"?>
<svg xmlns="http://www.w3.org/2000/svg" viewBox="0 0 100 100" width="100" height="100" role="img" aria-label="OconEco mark"><circle cx="50.000" cy="26.800" r="26.300" fill="none" stroke="#96C13F" stroke-width="1.4" stroke-opacity="0.55"/><circle cx="70.092" cy="61.600" r="26.300" fill="none" stroke="#96C13F" stroke-width="1.4" stroke-opacity="0.55"/><circle cx="29.908" cy="61.600" r="26.300" fill="none" stroke="#96C13F" stroke-width="1.4" stroke-opacity="0.55"/><g><path d="M 25.2569 35.7146 A 26.3000 26.3000 0 0 1 54.6513 52.6854 A 26.3000 26.3000 0 0 1 25.2569 35.7146 Z" fill="#0F4C5C" opacity="0.90"/><path d="M 74.7431 35.7146 A 26.3000 26.3000 0 0 1 45.3487 52.6854 A 26.3000 26.3000 0 0 1 74.7431 35.7146 Z"  fill="#0F4C5C" opacity="0.75"/><path d="M 50.0000 78.5709 A 26.3000 26.3000 0 0 1 50.0000 44.6291 A 26.3000 26.3000 0 0 1 50.0000 78.5709 Z"  fill="#0F4C5C" opacity="0.55"/><path d="M 50.0000 44.6291 A 26.3000 26.3000 0 0 1 54.6513 52.6854 A 26.3000 26.3000 0 0 1 45.3487 52.6854 A 26.3000 26.3000 0 0 1 50.0000 44.6291 Z"  fill="#0F4C5C" opacity="1.00"/></g></svg>